<mxfile host="app.diagrams.net" modified="2024-04-18T09:16:43.255Z" agent="Mozilla/5.0 (Macintosh; Intel Mac OS X 10_15_7) AppleWebKit/537.36 (KHTML, like Gecko) Chrome/123.0.0.0 Safari/537.36" version="24.2.5" etag="xMZ51G02ycqO7e8Z4SNT" type="github">
  <diagram name="第 1 页" id="1Re52G0xKLn8CzeDzDN7">
    <mxGraphModel>
      <root>
        <mxCell id="0" />
        <mxCell id="1" parent="0" />
      </root>
    </mxGraphModel>
  </diagram>
</mxfile>
